<svg width="36" height="36" viewBox="0 0 36 36" fill="none" xmlns="http://www.w3.org/2000/svg">
<rect width="36" height="36" rx="6" fill="#2A3A2F"/>
<path d="M7.296 26V23.552H10.536V13.592H7.296V11.144H16.728V13.592H13.512V23.552H16.728V26H7.296ZM26.232 14.6C26.856 14.6 27.368 14.696 27.768 14.888C28.168 15.08 28.48 15.368 28.704 15.752C28.944 16.136 29.104 16.624 29.184 17.216C29.264 17.792 29.304 18.472 29.304 19.256V26H26.904V19.112C26.904 18.664 26.872 18.304 26.808 18.032C26.76 17.76 26.688 17.552 26.592 17.408C26.512 17.264 26.408 17.168 26.28 17.12C26.168 17.072 26.048 17.048 25.92 17.048C25.776 17.048 25.624 17.064 25.464 17.096C25.304 17.112 25.16 17.152 25.032 17.216C25.08 17.52 25.12 17.856 25.152 18.224C25.184 18.592 25.2 19 25.2 19.448V21.704H22.8V19.112C22.8 18.344 22.72 17.808 22.56 17.504C22.416 17.2 22.176 17.048 21.84 17.048C21.744 17.048 21.624 17.056 21.48 17.072C21.352 17.088 21.224 17.112 21.096 17.144V26H18.696V15.152C19.32 14.976 19.936 14.84 20.544 14.744C21.152 14.648 21.688 14.6 22.152 14.6C22.568 14.6 22.936 14.656 23.256 14.768C23.592 14.864 23.88 15.032 24.12 15.272C24.392 15.096 24.712 14.944 25.08 14.816C25.448 14.672 25.832 14.6 26.232 14.6Z" fill="#00C9A7"/>
</svg>
